<?xml version="1.0" standalone="no"?>
<!DOCTYPE svg PUBLIC "-//W3C//DTD SVG 20010904//EN"
 "http://www.w3.org/TR/2001/REC-SVG-20010904/DTD/svg10.dtd">
<svg version="1.0" xmlns="http://www.w3.org/2000/svg"
 width="600.000000pt" height="600.000000pt" viewBox="0 0 600.000000 600.000000"
 preserveAspectRatio="xMidYMid meet">
<metadata>
Created by potrace 1.16, written by Peter Selinger 2001-2019
</metadata>
<g transform="translate(0.000000,600.000000) scale(0.222222,-0.222222)"
fill="#000000" stroke="none">
<path d="M1111 2684 c-548 -92 -1006 -554 -1096 -1104 -19 -122 -19 -338 0
-460 90 -555 550 -1015 1105 -1105 122 -19 338 -19 460 0 555 90 1015 550
1105 1105 19 122 19 338 0 460 -90 555 -550 1015 -1105 1105 -117 19 -354 18
-469 -1z m326 -539 c26 -19 47 -77 38 -107 -18 -60 -79 -89 -139 -67 -33 12
-38 10 -145 -51 l-111 -64 0 -321 0 -321 -35 -17 c-20 -9 -38 -17 -40 -17 -3
0 -4 162 -3 361 l3 361 138 80 c113 66 137 84 137 103 0 57 105 97 157 60z
m403 -322 l170 -98 0 -314 0 -313 30 -35 c41 -46 41 -94 1 -134 -60 -60 -156
-27 -168 57 -4 35 -1 45 26 76 l31 36 0 290 0 290 -131 76 c-71 42 -133 76
-136 76 -3 0 -66 -35 -140 -77 l-133 -77 0 -108 0 -108 -40 0 -41 0 3 132 3
132 170 98 c93 54 173 98 178 98 4 0 84 -44 177 -97z m-1044 -67 c23 -23 34
-43 34 -62 0 -32 -33 -94 -50 -94 -7 0 -9 -98 -8 -297 l3 -296 134 -79 135
-78 115 66 c64 37 124 72 133 78 14 9 18 29 20 121 l3 110 38 3 38 3 -3 -137
-3 -136 -169 -100 c-93 -54 -172 -97 -176 -96 -4 2 -82 46 -173 98 l-167 95 0
314 0 315 -35 32 c-27 24 -35 39 -35 65 1 99 98 143 166 75z m900 -971 c-2 -5
-63 -44 -135 -85 -92 -53 -131 -80 -131 -93 0 -44 -51 -87 -104 -87 -35 0 -84
45 -92 85 -14 78 76 142 147 104 16 -8 39 1 129 53 l110 62 0 318 0 318 38 23
37 24 3 -356 c1 -196 0 -360 -2 -366z"/>
</g>
</svg>
